0
SECTION
2
HEADER
9
$INSUNITS
70
4
9
$ACADVER
1
AC1014
9
$HANDSEED
5
FFFF
0
ENDSEC
0
SECTION
2
TABLES
0
TABLE
2
VPORT
5
8
100
AcDbSymbolTable
0
ENDTAB
0
TABLE
2
LTYPE
5
5
100
AcDbSymbolTable
0
LTYPE
5
14
100
AcDbSymbolTableRecord
100
AcDbLinetypeTableRecord
2
BYBLOCK
70
0
0
LTYPE
5
15
100
AcDbSymbolTableRecord
100
AcDbLinetypeTableRecord
2
BYLAYER
70
0
0
ENDTAB
0
TABLE
2
LAYER
5
2
100
AcDbSymbolTable
70
2
0
LAYER
5
50
100
AcDbSymbolTableRecord
100
AcDbLayerTableRecord
2
0
70
0
6
CONTINUOUS
0
ENDTAB
0
TABLE
2
STYLE
5
3
100
AcDbSymbolTable
70
1
0
STYLE
5
11
100
AcDbSymbolTableRecord
100
AcDbTextStyleTableRecord
2
STANDARD
70
0
0
ENDTAB
0
TABLE
2
VIEW
5
6
100
AcDbSymbolTable
70
0
0
ENDTAB
0
TABLE
2
UCS
5
7
100
AcDbSymbolTable
70
0
0
ENDTAB
0
TABLE
2
APPID
5
9
100
AcDbSymbolTable
70
2
0
APPID
5
12
100
AcDbSymbolTableRecord
100
AcDbRegAppTableRecord
2
ACAD
70
0
0
ENDTAB
0
TABLE
2
DIMSTYLE
5
A
100
AcDbSymbolTable
70
1
0
ENDTAB
0
TABLE
2
BLOCK_RECORD
5
1
100
AcDbSymbolTable
70
1
0
BLOCK_RECORD
5
1F
100
AcDbSymbolTableRecord
100
AcDbBlockTableRecord
2
*MODEL_SPACE
0
BLOCK_RECORD
5
1B
100
AcDbSymbolTableRecord
100
AcDbBlockTableRecord
2
*PAPER_SPACE
0
ENDTAB
0
ENDSEC
0
SECTION
2
BLOCKS
0
BLOCK
5
20
100
AcDbEntity
100
AcDbBlockBegin
2
*MODEL_SPACE
0
ENDBLK
5
21
100
AcDbEntity
100
AcDbBlockEnd
0
BLOCK
5
1C
100
AcDbEntity
100
AcDbBlockBegin
2
*PAPER_SPACE
0
ENDBLK
5
1D
100
AcDbEntity
100
AcDbBlockEnd
0
ENDSEC
0
SECTION
2
ENTITIES
0
LWPOLYLINE
5
100
100
AcDbEntity
8
0
100
AcDbPolyline
90
14
70
1
43
0.0
10
230.00000000000006
20
624.99999999999989
10
230.00000000000014
20
375
42
-0.41421356237309587
10
180
20
324.99999999999989
10
-50
20
325
42
-0.41421356237309509
10
-100
20
375
10
-99.999999999999972
20
439.25
10
-34.252128060534524
20
439.24999999999989
42
0.99999999999999989
10
-29.761999999999986
20
443.74012806053457
10
-29.761999999999912
20
556.25987193946548
42
0.99999999999999989
10
-34.252128060534517
20
560.75
10
-99.999999999999972
20
560.75
10
-99.999999999999929
20
625
42
-0.41421356237309515
10
-49.999999999999929
20
675
10
180.00000000000006
20
675
42
-0.41421356237309359
0
LWPOLYLINE
5
101
100
AcDbEntity
8
0
100
AcDbPolyline
90
20
70
1
43
0.0
10
37.196491498017338
20
675
42
-0.3763996637111709
10
40.170862172188976
20
672.39130434782601
42
0.37639966371116673
10
60.000000000000057
20
655
10
70.000000000000057
20
655
42
0.3763996637111669
10
89.829137827811195
20
672.39130434782612
42
-0.37639966371115913
10
92.803508501982819
20
674.99999999999989
10
180.00000000000006
20
675
42
-0.41421356237309509
10
230.00000000000006
20
624.99999999999989
10
230.00000000000006
20
584.99999999999989
10
215.00000000000006
20
584.99999999999989
10
215.00000000000003
20
505.99999999999989
10
63.000000000000007
20
505.99999999999994
42
-0.41421356237309492
10
43.000000000000014
20
526
10
43.00000000000005
20
584.99999934434879
42
0.4142135623730932
10
23.000000000000043
20
604.99999934434879
10
-94.999999999999929
20
605
10
-94.999999999999972
20
560.75
10
-99.999999999999972
20
560.75
10
-99.999999999999929
20
625
42
-0.4142135623730952
10
-49.999999999999893
20
675
0
LWPOLYLINE
5
102
100
AcDbEntity
8
0
100
AcDbPolyline
90
7
70
1
43
0.0
10
11.000000000000007
20
593
42
-0.41421356237309509
10
31.000000000000011
20
573
10
31.000000000000156
20
552.24999876320351
10
-29.761999999999951
20
552.24999876320351
10
-29.761999999999951
20
556.25987193946537
42
0.94797216399976891
10
-33.999995663762029
20
560.97654445495345
10
-33.999995663762022
20
593
0
LWPOLYLINE
5
103
100
AcDbEntity
8
0
100
AcDbPolyline
90
4
70
1
43
0.0
10
-51.999995931982923
20
593
10
-76.999999999999915
20
593
10
-76.999999999999957
20
560.75
10
-51.999995931982959
20
560.74999907612801
0
ARC
5
104
100
AcDbEntity
8
0
100
AcDbCircle
10
37.196491498017245
20
328
30
0
40
2.9999999999999716
210
-0
220
0
230
1
100
AcDbArc
50
270.00000000000017
51
352.50528254607156
0
LINE
5
105
100
AcDbEntity
8
0
100
AcDbLine
10
37.196491498017252
20
325
30
0
11
-50
21
325
31
0
0
ARC
5
106
100
AcDbEntity
8
0
100
AcDbCircle
10
-50
20
375
30
0
40
50
210
0
220
0
230
1
100
AcDbArc
50
180
51
270
0
LINE
5
107
100
AcDbEntity
8
0
100
AcDbLine
10
-100
20
375
30
0
11
-99.999999999999972
21
439.25
31
0
0
LINE
5
108
100
AcDbEntity
8
0
100
AcDbLine
10
-99.999999999999972
20
439.25
30
0
11
-34.252128060534517
21
439.25
31
0
0
ARC
5
109
100
AcDbEntity
8
0
100
AcDbCircle
10
-32.007064030267252
20
441.4950640302672
30
0
40
3.1749999999999421
210
0
220
0
230
1
100
AcDbArc
50
-135.0000000000008
51
45.000000000000547
0
LINE
5
110
100
AcDbEntity
8
0
100
AcDbLine
10
-29.761999999999979
20
443.74012806053452
30
0
11
-29.761999999999951
21
520.24999828636646
31
0
0
LINE
5
111
100
AcDbEntity
8
0
100
AcDbLine
10
-29.761999999999951
20
520.24999828636646
30
0
11
31.000000000000085
21
520.24999828636646
31
0
0
LINE
5
112
100
AcDbEntity
8
0
100
AcDbLine
10
31.000000000000085
20
520.24999828636646
30
0
11
31.000000000000085
21
513.99999999999989
31
0
0
ARC
5
113
100
AcDbEntity
8
0
100
AcDbCircle
10
51.000000000000128
20
514
30
0
40
20.000000000000043
210
0
220
0
230
1
100
AcDbArc
50
180
51
269.99999999999983
0
LINE
5
114
100
AcDbEntity
8
0
100
AcDbLine
10
51.000000000000078
20
493.99999999999989
30
0
11
215.00000000000003
21
493.99999999999983
31
0
0
LINE
5
115
100
AcDbEntity
8
0
100
AcDbLine
10
215.00000000000003
20
493.99999999999983
30
0
11
215
21
414.99999999999994
31
0
0
LINE
5
116
100
AcDbEntity
8
0
100
AcDbLine
10
215
20
414.99999999999994
30
0
11
230
21
414.99999999999994
31
0
0
LINE
5
117
100
AcDbEntity
8
0
100
AcDbLine
10
230
20
414.99999999999994
30
0
11
230
21
375
31
0
0
ARC
5
118
100
AcDbEntity
8
0
100
AcDbCircle
10
180
20
375
30
0
40
50
210
-0
220
0
230
1
100
AcDbArc
50
-90
51
0
0
LINE
5
119
100
AcDbEntity
8
0
100
AcDbLine
10
180
20
325
30
0
11
92.803508501982748
21
325
31
0
0
ARC
5
120
100
AcDbEntity
8
0
100
AcDbCircle
10
92.803508501982748
20
328
30
0
40
2.9999999999999978
210
0
220
0
230
1
100
AcDbArc
50
187.49471745392842
51
270
0
ARC
5
121
100
AcDbEntity
8
0
100
AcDbCircle
10
70.000000000000085
20
325.00000000000011
30
0
40
19.999999999999879
210
0
220
-0
230
1
100
AcDbArc
50
7.4947174539261265
51
90.000000000000242
0
LINE
5
122
100
AcDbEntity
8
0
100
AcDbLine
10
70
20
345
30
0
11
60
21
345
31
0
0
ARC
5
123
100
AcDbEntity
8
0
100
AcDbCircle
10
59.999999999999901
20
325.00000000000011
30
0
40
19.999999999999858
210
0
220
-0
230
1
100
AcDbArc
50
89.999999999999716
51
172.50528254607389
0
LWPOLYLINE
5
124
100
AcDbEntity
8
0
100
AcDbPolyline
90
4
70
1
43
0.0
10
230.00000000000003
20
474.99999999999994
10
230.00000000000003
20
525.00000037252892
10
220.00000000000003
20
525.00000037252892
10
220.00000000000003
20
474.99999999999994
0
ARC
5
125
100
AcDbEntity
8
0
100
AcDbCircle
10
51.000000000000128
20
514
30
0
40
20.000000000000043
210
0
220
0
230
1
100
AcDbArc
50
180
51
269.99999999999983
0
LINE
5
126
100
AcDbEntity
8
0
100
AcDbLine
10
31.000000000000085
20
513.99999999999989
30
0
11
30.999999999999986
21
520.24999828636646
31
0
0
LINE
5
127
100
AcDbEntity
8
0
100
AcDbLine
10
30.999999999999986
20
520.24999828636646
30
0
11
31
21
552.24999876320351
31
0
0
LINE
5
128
100
AcDbEntity
8
0
100
AcDbLine
10
31
20
552.24999876320351
30
0
11
31.000000000000007
21
572.99999999999989
31
0
0
ARC
5
129
100
AcDbEntity
8
0
100
AcDbCircle
10
10.999999999999961
20
572.99999999999989
30
0
40
20.000000000000043
210
0
220
-0
230
1
100
AcDbArc
50
0
51
89.999999999999844
0
LINE
5
130
100
AcDbEntity
8
0
100
AcDbLine
10
11.000000000000012
20
593
30
0
11
-33.999995663762022
21
593
31
0
0
LINE
5
131
100
AcDbEntity
8
0
100
AcDbLine
10
-33.999995663762022
20
593
30
0
11
-33.999995663762022
21
604.99999934434891
31
0
0
LINE
5
132
100
AcDbEntity
8
0
100
AcDbLine
10
-33.999995663762022
20
604.99999934434891
30
0
11
23.000000000000043
21
605
31
0
0
ARC
5
133
100
AcDbEntity
8
0
100
AcDbCircle
10
22.999999999999989
20
584.99999934434879
30
0
40
20.000000000000053
210
0
220
-0
230
1
100
AcDbArc
50
0
51
89.999999999999844
0
LINE
5
134
100
AcDbEntity
8
0
100
AcDbLine
10
43.000000000000043
20
584.99999934434879
30
0
11
43.000000000000014
21
526
31
0
0
ARC
5
135
100
AcDbEntity
8
0
100
AcDbCircle
10
63.000000000000057
20
526
30
0
40
20.000000000000043
210
0
220
0
230
1
100
AcDbArc
50
180
51
269.99999999999983
0
LINE
5
136
100
AcDbEntity
8
0
100
AcDbLine
10
63.000000000000007
20
505.99999999999994
30
0
11
215.00000000000003
21
505.99999999999989
31
0
0
LINE
5
137
100
AcDbEntity
8
0
100
AcDbLine
10
215.00000000000003
20
505.99999999999989
30
0
11
215.00000000000003
21
524.99999999999989
31
0
0
LINE
5
138
100
AcDbEntity
8
0
100
AcDbLine
10
215.00000000000003
20
524.99999999999989
30
0
11
220.00000000000003
21
525.00000037252892
31
0
0
LINE
5
139
100
AcDbEntity
8
0
100
AcDbLine
10
220.00000000000003
20
525.00000037252892
30
0
11
220.00000000000003
21
474.99999999999994
31
0
0
LINE
5
140
100
AcDbEntity
8
0
100
AcDbLine
10
220.00000000000003
20
474.99999999999994
30
0
11
215.00000000000003
21
474.99999999999994
31
0
0
LINE
5
141
100
AcDbEntity
8
0
100
AcDbLine
10
215.00000000000003
20
474.99999999999994
30
0
11
215.00000000000003
21
493.99999999999983
31
0
0
LINE
5
142
100
AcDbEntity
8
0
100
AcDbLine
10
215.00000000000003
20
493.99999999999983
30
0
11
51.000000000000078
21
493.99999999999989
31
0
0
LWPOLYLINE
5
143
100
AcDbEntity
8
0
100
AcDbPolyline
90
4
70
1
43
0.0
10
215.00000000000006
20
474.99999999999994
10
215.00000000000006
20
414.99999999999994
10
230
20
414.99999999999994
10
230
20
474.99999999999994
0
LWPOLYLINE
5
144
100
AcDbEntity
8
0
100
AcDbPolyline
90
4
70
1
43
0.0
10
230
20
584.99999999999989
10
215.00000000000006
20
584.99999999999989
10
215.00000000000006
20
524.99999999999989
10
230
20
524.99999999999989
0
LWPOLYLINE
5
145
100
AcDbEntity
8
0
100
AcDbPolyline
90
6
70
1
43
0.0
10
70
20
345
42
-0.37639966371117528
10
89.829137827811095
20
327.60869565217388
42
0.37639966371118527
10
92.803508501982748
20
324.99999999999994
10
37.196491498017245
20
325
42
0.37639966371119332
10
40.170862172188933
20
327.60869565217399
42
-0.37639966371117434
10
59.999999999999993
20
345
0
LWPOLYLINE
5
146
100
AcDbEntity
8
0
100
AcDbPolyline
90
4
70
1
43
0.0
10
-29.761999999999951
20
520.24999828636646
10
31.000000000000085
20
520.24999828636646
10
31.000000000000156
20
552.24999876320351
10
-29.761999999999951
20
552.24999876320351
0
LWPOLYLINE
5
147
100
AcDbEntity
8
0
100
AcDbPolyline
90
5
70
1
43
0.0
10
-34.252128060534524
20
560.75
42
-0.0267087163573205
10
-33.999995663762043
20
560.97654445495345
10
-33.999995663762022
20
604.99999934434891
10
-51.999995931982923
20
604.99999934434891
10
-51.999995931982959
20
560.74999907612801
0
LWPOLYLINE
5
148
100
AcDbEntity
8
0
100
AcDbPolyline
90
6
70
1
43
0.0
10
-94.999999999999929
20
605
10
-94.999999999999972
20
560.75
10
-76.999999999999957
20
560.75
10
-76.999999999999915
20
593
10
-51.999995931982923
20
593
10
-51.999995931982923
20
604.99999934434891
0
LWPOLYLINE
5
149
100
AcDbEntity
8
0
100
AcDbPolyline
90
6
70
1
43
0.0
10
89.82913782781128
20
672.39130434782612
42
-0.37639966371116634
10
70.000000000000099
20
655
10
60.000000000000064
20
655
42
-0.37639966371116879
10
40.170862172188968
20
672.39130434782612
42
0.37639966371118994
10
37.196491498017309
20
674.99999999999989
10
92.803508501982819
20
675
42
0.37639966371114147
0
ENDSEC
0
SECTION
2
OBJECTS
0
DICTIONARY
5
C
100
AcDbDictionary
3
ACAD_GROUP
350
D
3
ACAD_MLINESTYLE
350
17
0
DICTIONARY
5
D
100
AcDbDictionary
0
DICTIONARY
5
1A
330
C
100
AcDbDictionary
0
DICTIONARY
5
17
100
AcDbDictionary
0
ENDSEC
0
EOF
